<svg xmlns="http://www.w3.org/2000/svg" xmlns:xlink="http://www.w3.org/1999/xlink" viewBox="0 0 142.71 164.78"><defs><style>.cls-1,.cls-10,.cls-12{fill:none;}.cls-2{clip-path:url(#clip-path);}.cls-3{fill:#006838;}.cls-4,.cls-9{fill:#fff;}.cls-5,.cls-6,.cls-7{fill:#8dc63f;}.cls-5{fill-opacity:0.5;}.cls-6{fill-opacity:0.75;}.cls-7{fill-opacity:0.25;}.cls-8{fill:#010101;}.cls-10,.cls-12,.cls-9{stroke:#010101;stroke-miterlimit:10;}.cls-9{stroke-linecap:round;}.cls-10,.cls-9{stroke-width:0.29px;}.cls-11{clip-path:url(#clip-path-2);}.cls-12{stroke-width:0.33px;}.cls-13{clip-path:url(#clip-path-3);}.cls-14{fill:#231f20;}</style><clipPath id="clip-path"><polygon class="cls-1" points="133.71 118.39 71.35 154.39 9 118.39 9 46.39 71.35 10.39 133.71 46.39 133.71 118.39"/></clipPath><clipPath id="clip-path-2"><polygon class="cls-1" points="74.14 53.28 87.09 81.58 82.73 81.58 79.01 73.4 64.05 73.4 60.34 81.58 55.97 81.58 68.93 53.28 20.9 53.28 20.9 84.3 118.15 84.3 118.15 53.28 74.14 53.28"/></clipPath><clipPath id="clip-path-3"><path class="cls-1" d="M92,59.34v2.17a4.36,4.36,0,0,1,1.81-.4c2.12,0,3.85,1.45,3.85,3.25s-1.72,3.25-3.85,3.25A4.36,4.36,0,0,1,92,67.2V81.45h22.53V59.34Z"/></clipPath></defs><title>BAC</title><g id="Layer_2" data-name="Layer 2"><g id="Build_A_Cell" data-name="Build A Cell"><g class="cls-2"><polygon class="cls-3" points="66.85 2.6 4.5 38.6 0 41.2 0 46.39 0 118.39 0 123.59 4.5 126.19 66.85 162.19 71.35 164.78 75.85 162.19 138.21 126.19 142.71 123.59 142.71 118.39 142.71 46.39 142.71 41.2 138.21 38.6 75.85 2.6 71.35 0 66.85 2.6"/><polygon class="cls-4" points="67.65 16.15 16.38 46.03 12.67 48.19 12.67 52.51 12.67 112.28 12.67 116.59 16.38 118.75 67.65 148.63 71.35 150.79 75.06 148.63 126.33 118.75 130.03 116.59 130.03 112.28 130.03 52.51 130.03 48.19 126.33 46.03 75.06 16.15 71.35 13.99 67.65 16.15"/><polygon class="cls-5" points="142.71 41.2 138.21 38.6 75.85 2.6 71.35 0 66.85 2.6 4.5 38.6 0 41.2 71.35 82.39 142.71 41.2"/><polygon class="cls-6" points="0 41.2 0 46.39 0 118.39 0 123.59 4.5 126.19 66.85 162.19 71.35 164.78 71.35 82.39 0 41.2"/><polygon class="cls-7" points="71.35 164.78 75.85 162.19 138.21 126.19 142.71 123.59 142.71 118.39 142.71 46.39 142.71 41.2 71.35 82.39 71.35 164.78"/><path class="cls-8" d="M55.84,116.84a7.7,7.7,0,0,1-4.11,1.33c-7.59,0-8.7-9.9-8.7-15.43C43,97.51,43.19,85,52,85a7,7,0,0,1,3.81,1v3.3a6.39,6.39,0,0,0-3.77-1.41c-5.23,0-6,7.59-6,13.59,0,3.77,0,13.76,5.74,13.76a7.08,7.08,0,0,0,4-1.46Z"/><path class="cls-8" d="M69.85,88.17H62.69v11.4h6.94v2.74H62.69V115h7.16v2.74H59.69V85.42H69.85Z"/><path class="cls-8" d="M77.18,115h7v2.74h-10V85.42h3Z"/><path class="cls-8" d="M89.77,115h7v2.74h-10V85.42h3Z"/><path class="cls-8" d="M45.53,33.38h1.89c2.92,0,5.68.76,5.68,4.26a3.33,3.33,0,0,1-1.67,2.94v0a4,4,0,0,1,3.11,3.93c0,3.11-2.65,4.34-5.39,4.34H45.53Zm1.93,6.87H48c1.83,0,3.33-.37,3.33-2.59S49.8,35.11,48,35.11h-.54Zm0,6.91h1.48c1.79,0,3.66-.53,3.66-2.74s-2.22-2.63-3.95-2.63H47.46Z"/><path class="cls-8" d="M58.36,33.38v9.15c0,2.53.76,4.88,3.74,4.88s3.74-2.34,3.74-4.87V33.38h1.93v9.81c0,3.41-2.12,6-5.68,6s-5.68-2.61-5.68-6V33.38Z"/><path class="cls-8" d="M72.33,48.89H70.39V33.38h1.93Z"/><path class="cls-8" d="M77.16,47.12h4.71v1.77H75.23V33.38h1.93Z"/><path class="cls-8" d="M84.83,33.38H88c4.75,0,8.7,2.51,8.7,7.67S92.88,48.89,88,48.89H84.83Zm1.93,13.74h.68c3.95,0,7.36-1.48,7.36-6s-3.41-6-7.36-6h-.68Z"/><path class="cls-9" d="M54,60.61"/><path class="cls-9" d="M51.38,62.32"/><path class="cls-8" d="M65,74l-3.19,7H58L71.38,51.84,84.75,81H81l-3.19-7Zm6.42-14.52-5,11.33h10Z"/><path class="cls-10" d="M102.75,70.58"/><g class="cls-11"><path class="cls-8" d="M30.79,61.6l8.59,0a1.19,1.19,0,0,1,.27,0l1.91.45a1.19,1.19,0,0,1,.92,1.16V66a1.19,1.19,0,0,1-.74,1.1l-1.63.68a1.19,1.19,0,0,1-.45.09H37.38a1,1,0,0,0-1,.77h0L35,75.49l-.14.69H31l0-.29,1.48-6.83,0-.12a.88.88,0,0,0-.68-1l-.18,0h-.86a3,3,0,0,1-1.12-.51,2.31,2.31,0,0,1-.91-1.47V63.18A2.49,2.49,0,0,1,30.79,61.6Zm3.67-1,0,0-.06,0H30.79c-.55,0-3,.71-3,2.55V65.9a3.21,3.21,0,0,0,1.33,2.27,3.7,3.7,0,0,0,1.67.68h.74L30.1,75.69H28.55a.73.73,0,0,0-.73.73h0a.73.73,0,0,0,.73.73H39.21a.73.73,0,0,0,.73-.73h0a.73.73,0,0,0-.73-.73H35.92l1.46-6.84h2.36a1.74,1.74,0,0,0,.66-.13l2.31-.94a1.19,1.19,0,0,0,.74-1.1V62.51a1.19,1.19,0,0,0-.92-1.16l-2.78-.66a1.19,1.19,0,0,0-.27,0l-5.08,0h0Z"/><rect class="cls-8" x="29.78" y="62.69" width="4.49" height="0.68" rx="0.34" ry="0.34"/><rect class="cls-8" x="30.56" y="64.16" width="2.93" height="0.78" rx="0.34" ry="0.34"/><path class="cls-8" d="M48.6,64a2.7,2.7,0,0,0-2.65-2.15h-.61a.71.71,0,0,0-.71.71h0v4a.71.71,0,0,0,.71.71h.61a2.68,2.68,0,0,0,2.7-2.44h1.22l.76-.78Zm-.87.74A1.73,1.73,0,0,1,46,66.28h-.31V62.74H46a1.74,1.74,0,0,1,1.71,1.4l.05.28Z"/><path class="cls-8" d="M27.82,78.67v2.15a.73.73,0,0,0,.73.73H39.21a.73.73,0,0,0,.73-.73h0V78.67a.73.73,0,0,0-.73-.73H28.55a.73.73,0,0,0-.73.73Zm10.31,1.91h-8.5a.83.83,0,0,1-.83-.83h0a.83.83,0,0,1,.83-.84h8.5a.83.83,0,0,1,.83.83h0a.83.83,0,0,1-.83.84Z"/><path class="cls-8" d="M55.39,65.92l.89-.89a.15.15,0,0,0-.21-.21l-.89.89a1.79,1.79,0,0,1-1.27.52H52.78a.15.15,0,0,0,0,.29h1.13A2.08,2.08,0,0,0,55.39,65.92Z"/><path class="cls-8" d="M57.93,63l-.89.89a.15.15,0,0,0,0,.21.15.15,0,0,0,.21,0l.89-.89a1.79,1.79,0,0,1,1.27-.52h1.13a.15.15,0,1,0,0-.29H59.41A2.08,2.08,0,0,0,57.93,63Z"/><path class="cls-8" d="M60.68,66.39a.15.15,0,0,0-.15-.15h-.82V63a.15.15,0,1,0-.29,0v3.25h0a1.81,1.81,0,0,1-.66-.13V63.48a.15.15,0,1,0-.29,0V66a1.78,1.78,0,0,1-.32-.26l-.36-.36v-.91a.15.15,0,0,0-.29,0v.62l-.72-.72h0L55.39,63a2.07,2.07,0,0,0-1.48-.61H52.78a.15.15,0,0,0,0,.29h.82V65.9a.15.15,0,1,0,.29,0V62.65h0a1.81,1.81,0,0,1,.66.13v2.64a.15.15,0,1,0,.29,0V62.93a1.79,1.79,0,0,1,.32.26l.36.36v.91a.15.15,0,0,0,.29,0v-.62l.72.72h0l1.37,1.37a2.07,2.07,0,0,0,1.48.61h1.13A.15.15,0,0,0,60.68,66.39Z"/><path class="cls-8" d="M62,65.92l.89-.89a.15.15,0,1,0-.21-.21l-.89.89a1.79,1.79,0,0,1-1.27.52H59.35a.15.15,0,0,0,0,.29h1.13A2.08,2.08,0,0,0,62,65.92Z"/><path class="cls-8" d="M64.5,63l-.89.89a.15.15,0,0,0,0,.21.15.15,0,0,0,.21,0l.89-.89A1.79,1.79,0,0,1,66,62.65H67.1a.15.15,0,1,0,0-.29H66A2.08,2.08,0,0,0,64.5,63Z"/><path class="cls-8" d="M67.25,66.39a.15.15,0,0,0-.15-.15h-.82V63A.15.15,0,0,0,66,63v3.25h0a1.81,1.81,0,0,1-.66-.13V63.48a.15.15,0,0,0-.29,0V66a1.78,1.78,0,0,1-.32-.26l-.36-.36v-.91a.15.15,0,1,0-.29,0v.62l-.72-.72h0L62,63a2.07,2.07,0,0,0-1.48-.61H59.35a.15.15,0,1,0,0,.29h.82V65.9a.15.15,0,1,0,.29,0V62.65h0a1.81,1.81,0,0,1,.66.13v2.64a.15.15,0,1,0,.29,0V62.93a1.79,1.79,0,0,1,.32.26l.36.36v.91a.15.15,0,0,0,.29,0v-.62l.72.72h0l1.37,1.37a2.07,2.07,0,0,0,1.48.61H67.1A.15.15,0,0,0,67.25,66.39Z"/><path class="cls-8" d="M68.52,65.92l.89-.89a.15.15,0,0,0-.21-.21l-.89.89a1.79,1.79,0,0,1-1.27.52H65.91a.15.15,0,0,0,0,.29H67A2.08,2.08,0,0,0,68.52,65.92Z"/><path class="cls-8" d="M71.06,63l-.89.89a.15.15,0,0,0,0,.21.15.15,0,0,0,.21,0l.89-.89a1.79,1.79,0,0,1,1.27-.52h1.13a.15.15,0,1,0,0-.29H72.54A2.08,2.08,0,0,0,71.06,63Z"/><path class="cls-8" d="M73.82,66.39a.15.15,0,0,0-.15-.15h-.82V63a.15.15,0,0,0-.29,0v3.25h0a1.81,1.81,0,0,1-.66-.13V63.48a.15.15,0,0,0-.29,0V66a1.78,1.78,0,0,1-.32-.26l-.36-.36v-.91a.15.15,0,0,0-.29,0v.62l-.72-.72h0L68.53,63A2.07,2.07,0,0,0,67,62.36H65.91a.15.15,0,0,0,0,.29h.82V65.9a.15.15,0,1,0,.29,0V62.65h0a1.81,1.81,0,0,1,.66.13v2.64a.15.15,0,1,0,.29,0V62.93a1.79,1.79,0,0,1,.32.26l.36.36v.91a.15.15,0,0,0,.29,0v-.62l.72.72h0l1.37,1.37a2.07,2.07,0,0,0,1.48.61h1.13A.15.15,0,0,0,73.82,66.39Z"/><path class="cls-8" d="M75.09,65.92,76,65a.15.15,0,1,0-.21-.21l-.89.89a1.79,1.79,0,0,1-1.27.52H72.48a.15.15,0,0,0,0,.29h1.13A2.08,2.08,0,0,0,75.09,65.92Z"/><path class="cls-8" d="M77.63,63l-.89.89a.15.15,0,0,0,0,.21.15.15,0,0,0,.21,0l.89-.89a1.79,1.79,0,0,1,1.27-.52h1.13a.15.15,0,1,0,0-.29H79.11A2.08,2.08,0,0,0,77.63,63Z"/><path class="cls-8" d="M80.38,66.39a.15.15,0,0,0-.15-.15h-.82V63a.15.15,0,0,0-.29,0v3.25h0a1.81,1.81,0,0,1-.66-.13V63.48a.15.15,0,1,0-.29,0V66a1.78,1.78,0,0,1-.32-.26l-.36-.36v-.91a.15.15,0,0,0-.29,0v.62l-.72-.72h0L75.1,63a2.07,2.07,0,0,0-1.48-.61H72.48a.15.15,0,0,0,0,.29h.82V65.9a.15.15,0,1,0,.29,0V62.65h0a1.81,1.81,0,0,1,.66.13v2.64a.15.15,0,1,0,.29,0V62.93a1.79,1.79,0,0,1,.32.26l.36.36v.91a.15.15,0,0,0,.29,0v-.62l.72.72h0l1.37,1.37a2.07,2.07,0,0,0,1.48.61h1.13A.15.15,0,0,0,80.38,66.39Z"/><path class="cls-8" d="M81.91,65.92,82.8,65a.15.15,0,0,0-.21-.21l-.89.89a1.79,1.79,0,0,1-1.27.52H79.3a.15.15,0,0,0,0,.29h1.13A2.08,2.08,0,0,0,81.91,65.92Z"/><path class="cls-8" d="M84.45,63l-.89.89a.15.15,0,0,0,0,.21.15.15,0,0,0,.21,0l.89-.89a1.79,1.79,0,0,1,1.27-.52h1.13a.15.15,0,1,0,0-.29H85.93A2.08,2.08,0,0,0,84.45,63Z"/><path class="cls-8" d="M87.2,66.39a.15.15,0,0,0-.15-.15h-.82V63a.15.15,0,0,0-.29,0v3.25h0a1.81,1.81,0,0,1-.66-.13V63.48a.15.15,0,0,0-.29,0V66a1.78,1.78,0,0,1-.32-.26l-.36-.36v-.91a.15.15,0,0,0-.29,0v.62l-.72-.72h0L81.91,63a2.07,2.07,0,0,0-1.48-.61H79.3a.15.15,0,0,0,0,.29h.82V65.9a.15.15,0,1,0,.29,0V62.65h0a1.81,1.81,0,0,1,.66.13v2.64a.15.15,0,1,0,.29,0V62.93a1.79,1.79,0,0,1,.32.26l.36.36v.91a.15.15,0,0,0,.29,0v-.62l.72.72h0l1.37,1.37a2.07,2.07,0,0,0,1.48.61h1.13A.15.15,0,0,0,87.2,66.39Z"/><path class="cls-8" d="M88.48,65.92l.89-.89a.15.15,0,0,0-.21-.21l-.89.89a1.79,1.79,0,0,1-1.27.52H85.87a.15.15,0,0,0,0,.29H87A2.08,2.08,0,0,0,88.48,65.92Z"/><path class="cls-8" d="M91,63l-.89.89a.15.15,0,0,0,0,.21.15.15,0,0,0,.21,0l.89-.89a1.79,1.79,0,0,1,1.27-.52h1.13a.15.15,0,1,0,0-.29H92.49A2.08,2.08,0,0,0,91,63Z"/><path class="cls-8" d="M93.77,66.39a.15.15,0,0,0-.15-.15H92.8V63a.15.15,0,1,0-.29,0v3.25h0a1.81,1.81,0,0,1-.66-.13V63.48a.15.15,0,1,0-.29,0V66a1.78,1.78,0,0,1-.32-.26l-.36-.36v-.91a.15.15,0,0,0-.29,0v.62l-.72-.72h0L88.48,63A2.07,2.07,0,0,0,87,62.36H85.87a.15.15,0,0,0,0,.29h.82V65.9a.15.15,0,1,0,.29,0V62.65h0a1.81,1.81,0,0,1,.66.13v2.64a.15.15,0,1,0,.29,0V62.93a1.79,1.79,0,0,1,.32.26l.36.36v.91a.15.15,0,0,0,.29,0v-.62l.72.72h0L91,65.92a2.07,2.07,0,0,0,1.48.61h1.13A.15.15,0,0,0,93.77,66.39Z"/><path class="cls-8" d="M95.3,65.92l.89-.89a.15.15,0,1,0-.21-.21l-.89.89a1.79,1.79,0,0,1-1.27.52H92.69a.15.15,0,0,0,0,.29h1.13A2.08,2.08,0,0,0,95.3,65.92Z"/><path class="cls-8" d="M97.39,65.07l-.72-.72h0L95.3,63a2.07,2.07,0,0,0-1.48-.61H92.69a.15.15,0,0,0,0,.29h.82V65.9a.15.15,0,1,0,.29,0V62.65h0a1.81,1.81,0,0,1,.66.13v2.64a.15.15,0,1,0,.29,0V62.93a1.79,1.79,0,0,1,.32.26l.36.36v.91a.15.15,0,0,0,.29,0v-.62l.72.72h0"/><path class="cls-8" d="M97.68,65.36"/><path class="cls-12" d="M52.8,62.51c-2,0-.66,1.6-2.69,1.6"/><path class="cls-12" d="M52.91,66.39c-2,0-1.08-1.79-3.1-1.79"/><ellipse class="cls-10" cx="104.64" cy="67.6" rx="3.56" ry="3.44"/><line class="cls-10" x1="96.23" y1="64.11" x2="102.34" y2="70.24"/><g class="cls-13"><path class="cls-8" d="M103.13,60.16A10.15,10.15,0,1,1,93,70.31a10.16,10.16,0,0,1,10.15-10.15m0-.57a10.72,10.72,0,1,0,10.72,10.72,10.72,10.72,0,0,0-10.72-10.72Z"/><path class="cls-8" d="M103.13,61.54a8.77,8.77,0,1,1-8.77,8.77,8.78,8.78,0,0,1,8.77-8.77m0-.57a9.34,9.34,0,1,0,9.34,9.34A9.34,9.34,0,0,0,103.13,61Z"/></g></g><path class="cls-14" d="M51.73,126h.36v3.54h0a1.7,1.7,0,0,1,1.42-.72,1.78,1.78,0,0,1,1.81,1.9,1.82,1.82,0,0,1-1.82,2,1.66,1.66,0,0,1-1.41-.74h0v.66h-.36ZM55,130.72a1.5,1.5,0,0,0-1.44-1.57,1.45,1.45,0,0,0-1.47,1.58,1.48,1.48,0,0,0,1.46,1.61A1.5,1.5,0,0,0,55,130.72Z"/><path class="cls-14" d="M58.8,128.89v2.21a1.68,1.68,0,0,1-.22,1.06,1.48,1.48,0,0,1-2.21,0,1.69,1.69,0,0,1-.22-1.06v-2.21h.36V131c0,.71.08,1.35,1,1.35s1-.64,1-1.35v-2.09Z"/><path class="cls-14" d="M60.63,127.66a.33.33,0,0,1-.66,0,.33.33,0,1,1,.66,0Zm-.15,4.92h-.36v-3.69h.36Z"/><path class="cls-14" d="M62.21,132.59h-.36V126h.36Z"/><path class="cls-14" d="M66.33,131.92h0a1.66,1.66,0,0,1-1.41.74,1.82,1.82,0,0,1-1.82-2,1.77,1.77,0,0,1,1.81-1.9,1.7,1.7,0,0,1,1.42.72h0V126h.36v6.6h-.36Zm0-1.25a1.45,1.45,0,0,0-1.48-1.53,1.6,1.6,0,1,0,1.48,1.53Z"/><path class="cls-14" d="M71.17,132.59h-.36v-.66h0a1.65,1.65,0,0,1-1.41.74,1.82,1.82,0,0,1-1.82-2,1.77,1.77,0,0,1,1.81-1.9,1.7,1.7,0,0,1,1.42.72h0v-.64h.36Zm-3.25-1.87a1.51,1.51,0,0,0,1.46,1.62,1.49,1.49,0,0,0,1.46-1.66,1.45,1.45,0,0,0-1.48-1.53A1.51,1.51,0,0,0,67.92,130.72Z"/><path class="cls-14" d="M75.24,129.75a1.7,1.7,0,0,0-1.3-.6,1.59,1.59,0,0,0,0,3.18,1.78,1.78,0,0,0,1.36-.66v.49a2,2,0,0,1-1.34.51,1.93,1.93,0,0,1,0-3.85,1.94,1.94,0,0,1,1.29.46Z"/><path class="cls-14" d="M76.22,130.77a1.44,1.44,0,0,0,1.48,1.56,1.48,1.48,0,0,0,1.3-.84l.3.18a2.16,2.16,0,1,1,.12-.9Zm2.85-.33a1.43,1.43,0,0,0-2.85,0Z"/><path class="cls-14" d="M80.66,132.59H80.3V126h.36Z"/><path class="cls-14" d="M82.25,132.59h-.36V126h.36Z"/><path class="cls-14" d="M84.44,132.34a.33.33,0,1,1-.33-.33A.32.32,0,0,1,84.44,132.34Z"/><path class="cls-14" d="M86.61,127.66a.33.33,0,0,1-.66,0,.33.33,0,0,1,.66,0Zm-.15,4.92H86.1v-3.69h.36Z"/><path class="cls-14" d="M91.34,130.74a1.93,1.93,0,1,1-1.94-1.93A1.91,1.91,0,0,1,91.34,130.74Zm-3.5,0a1.57,1.57,0,1,0,1.54-1.6A1.57,1.57,0,0,0,87.84,130.75Z"/></g></g></g></svg>