<svg xmlns="http://www.w3.org/2000/svg" xmlns:xlink="http://www.w3.org/1999/xlink" viewBox="0 0 143.96 166.23"><defs><style>.cls-1,.cls-10,.cls-5,.cls-9{fill:none;}.cls-2{clip-path:url(#clip-path);}.cls-3{fill:#50a5dc;}.cls-4{fill:#231f20;}.cls-10,.cls-5,.cls-9{stroke:#231f20;}.cls-5{stroke-miterlimit:10;stroke-width:3.05px;}.cls-6{fill:#8967ac;}.cls-7{fill:#54b948;}.cls-8{fill:#fce600;}.cls-9{stroke-width:1.25px;}.cls-10{stroke-width:8px;}</style><clipPath id="clip-path"><polygon class="cls-1" points="134.33 119.11 71.98 155.11 9.63 119.11 9.63 47.11 71.98 11.11 134.33 47.11 134.33 119.11"/></clipPath></defs><title>HTG</title><g id="Layer_2" data-name="Layer 2"><g id="HTG"><g class="cls-2"><polygon class="cls-1" points="67.48 3.32 5.13 39.32 0.63 41.92 0.63 47.11 0.63 119.11 0.63 124.31 5.13 126.91 67.48 162.91 71.98 165.51 76.48 162.91 138.83 126.91 143.33 124.31 143.33 119.11 143.33 47.11 143.33 41.92 138.83 39.32 76.48 3.32 71.98 0.72 67.48 3.32"/><path class="cls-3" d="M41.66,83.56H35.81a1.06,1.06,0,0,1-.78-.29,1.19,1.19,0,0,1,0-1.76.94.94,0,0,1,.37-.22,1,1,0,0,1,.39-.07h1.37V77.84a1.46,1.46,0,0,1,0-.34v-.07l0,0v0l0,0,0,0v0a1.94,1.94,0,0,1,.37-.51,1.53,1.53,0,0,1,1.05-.39,1.5,1.5,0,0,1,1,.39,1.86,1.86,0,0,1,.36.49,1.35,1.35,0,0,1,.13.61v3.4h1.42a1.06,1.06,0,0,1,.78.29,1.14,1.14,0,0,1,0,1.76,1,1,0,0,1-.25.15l-.24.1A.73.73,0,0,1,41.66,83.56Zm-1.44.73V93a1.51,1.51,0,0,1,0,.32l0,.07v0l0,0,0,0v0l0,0a1.65,1.65,0,0,1-.34.49,1.7,1.7,0,0,1-.49.31,1.48,1.48,0,0,1-.56.11,1.54,1.54,0,0,1-.59-.11,1.38,1.38,0,0,1-.46-.31,1.42,1.42,0,0,1-.49-1.1V84.3Z"/><path class="cls-4" d="M45.91,76.69a1.86,1.86,0,0,1,.36.49,1.6,1.6,0,0,1,.16.59V93a1.49,1.49,0,0,1-.5,1,1.52,1.52,0,0,1-1,.4,1.5,1.5,0,0,1-1.52-1.52V77.86a1.49,1.49,0,0,1,.44-1.1,1.46,1.46,0,0,1,1.08-.44A1.56,1.56,0,0,1,45.91,76.69Zm1.25,7.86V81.78A3.83,3.83,0,0,1,48.57,81a5.88,5.88,0,0,1,1.65-.23,5.55,5.55,0,0,1,2.46.48,3.88,3.88,0,0,1,1.53,1.31,5.25,5.25,0,0,1,.78,2A12.58,12.58,0,0,1,55.22,87v6a1.61,1.61,0,0,1-.48,1,1.44,1.44,0,0,1-1.06.43,1.58,1.58,0,0,1-1-.4A1.32,1.32,0,0,1,52.16,93V87.11a4.43,4.43,0,0,0-.64-2.5,2.42,2.42,0,0,0-2.18-1,3.11,3.11,0,0,0-1.31.25A2.57,2.57,0,0,0,47.16,84.54Z"/><path class="cls-4" d="M63,94.48a6.44,6.44,0,0,1-2.57-.66,6.7,6.7,0,0,1-2-1.53,7.19,7.19,0,0,1-1.32-2.13,6.6,6.6,0,0,1-.48-2.49A6.92,6.92,0,0,1,58.42,83a7,7,0,0,1,2-1.52A6.35,6.35,0,0,1,63,80.82v2.62a4,4,0,0,0-1.35.36A3.38,3.38,0,0,0,60,85.4a2.92,2.92,0,0,0-.28.93H63v2.33H59.7A3.29,3.29,0,0,0,60,89.94a3.22,3.22,0,0,0,.76,1,3.72,3.72,0,0,0,1,.64,3.88,3.88,0,0,0,1.18.28Zm.73-13.66a6.51,6.51,0,0,1,2.51.64,7.11,7.11,0,0,1,2,1.44,6.73,6.73,0,0,1,1.35,2,5.64,5.64,0,0,1,.49,2.29,1.6,1.6,0,0,1-.48,1,1.45,1.45,0,0,1-1.07.43H63.74V86.33H67a3,3,0,0,0-.28-.93,3.28,3.28,0,0,0-.65-.91,4,4,0,0,0-1-.72,3.46,3.46,0,0,0-1.36-.36Zm2.59,9.6,0,0a1.73,1.73,0,0,1,.53-.47,1.4,1.4,0,0,1,.72-.2,1.51,1.51,0,0,1,1.06.45,1.45,1.45,0,0,1,.48,1.09,1.8,1.8,0,0,1-.54,1.22,5.13,5.13,0,0,1-1.35,1,8.44,8.44,0,0,1-1.76.71,6.6,6.6,0,0,1-1.79.27V91.84a3.18,3.18,0,0,0,2.59-1.42Z"/><line class="cls-5" x1="44.9" y1="89.02" x2="44.9" y2="98.58"/><path class="cls-6" d="M42.61,107.53a4.67,4.67,0,0,1-1.41.94,4.9,4.9,0,0,1-2,.38,6.65,6.65,0,0,1-2.59-.5,6.29,6.29,0,0,1-2.08-1.4,6.41,6.41,0,0,1-1.38-2.14,7.28,7.28,0,0,1-.5-2.74,7.36,7.36,0,0,1,.53-2.84,6.58,6.58,0,0,1,1.42-2.17,6.13,6.13,0,0,1,2.09-1.37,6.76,6.76,0,0,1,2.52-.48,5.58,5.58,0,0,1,1.91.32,4.65,4.65,0,0,1,1.52.88v3.16a3.33,3.33,0,0,0-1.21-1.08,3.85,3.85,0,0,0-1.85-.42,3.78,3.78,0,0,0-1.48.29,3.9,3.9,0,0,0-1.22.81A3.79,3.79,0,0,0,36,100.4a3.91,3.91,0,0,0-.31,1.57,4.41,4.41,0,0,0,.28,1.59,3.64,3.64,0,0,0,.8,1.26,3.76,3.76,0,0,0,1.22.83,3.85,3.85,0,0,0,1.54.31,4,4,0,0,0,1.76-.39,3.28,3.28,0,0,0,1.3-1.1Zm.76.1V96.73A1.52,1.52,0,0,1,46,95.62a1.58,1.58,0,0,1,.5,1.06v10.23a10.33,10.33,0,0,1-.29,2.67,5.47,5.47,0,0,1-.91,1.88,6.6,6.6,0,0,1-2.37,1.87,7.77,7.77,0,0,1-3.52.77,8.3,8.3,0,0,1-2.28-.31,7.3,7.3,0,0,1-1.9-.82,4.65,4.65,0,0,1-1.3-1.16,2.2,2.2,0,0,1-.48-1.31,1.64,1.64,0,0,1,.48-1.16,1.57,1.57,0,0,1,1.19-.5,1.2,1.2,0,0,1,.8.26,4.07,4.07,0,0,1,.58.6l.59.72a2.43,2.43,0,0,0,.83.62,4.07,4.07,0,0,0,.93.34,3.57,3.57,0,0,0,.76.1,4,4,0,0,0,1.36-.24,3.87,3.87,0,0,0,1.22-.72,3.61,3.61,0,0,0,.89-1.2A3.93,3.93,0,0,0,43.37,107.63Z"/><path class="cls-4" d="M53.7,108.8a6.44,6.44,0,0,1-2.57-.66,6.7,6.7,0,0,1-2-1.53,7.19,7.19,0,0,1-1.32-2.13,6.6,6.6,0,0,1-.48-2.49,6.92,6.92,0,0,1,1.81-4.68,7,7,0,0,1,2-1.52,6.35,6.35,0,0,1,2.56-.66v2.62a4,4,0,0,0-1.35.36,3.38,3.38,0,0,0-1.63,1.6,2.92,2.92,0,0,0-.28.93H53.7V103h-3.3a3.29,3.29,0,0,0,.34,1.29,3.22,3.22,0,0,0,.76,1,3.72,3.72,0,0,0,1,.64,3.88,3.88,0,0,0,1.18.28Zm.73-13.66a6.52,6.52,0,0,1,2.51.64,7.11,7.11,0,0,1,2,1.44,6.73,6.73,0,0,1,1.35,2,5.64,5.64,0,0,1,.49,2.29,1.6,1.6,0,0,1-.48,1,1.45,1.45,0,0,1-1.07.43H54.43v-2.33h3.3a3,3,0,0,0-.28-.93,3.28,3.28,0,0,0-.65-.91,4,4,0,0,0-1-.72,3.46,3.46,0,0,0-1.36-.36Zm2.59,9.6,0,0a1.73,1.73,0,0,1,.53-.47,1.4,1.4,0,0,1,.72-.2,1.51,1.51,0,0,1,1.06.45,1.45,1.45,0,0,1,.48,1.09,1.8,1.8,0,0,1-.54,1.22,5.13,5.13,0,0,1-1.35,1,8.44,8.44,0,0,1-1.76.71,6.6,6.6,0,0,1-1.79.27v-2.64A3.18,3.18,0,0,0,57,104.74Z"/><path class="cls-4" d="M65.6,96.58v10.72a1.5,1.5,0,0,1-.46,1.06,1.49,1.49,0,0,1-1.08.43,1.46,1.46,0,0,1-1.05-.43,1.48,1.48,0,0,1-.46-1V96.58a1.56,1.56,0,0,1,.48-1,1.47,1.47,0,0,1,1.06-.42,1.5,1.5,0,0,1,1.07.43A1.35,1.35,0,0,1,65.6,96.58ZM68.53,98a3.48,3.48,0,0,0-1.32.22,2.19,2.19,0,0,0-.88.64V96.1a4.79,4.79,0,0,1,1.26-.69,5.19,5.19,0,0,1,1.8-.27,5.26,5.26,0,0,1,2.55.54A4.25,4.25,0,0,1,73.47,97a4.9,4.9,0,0,1,.73,1.8,9.71,9.71,0,0,1,.18,1.8v6.63a1.5,1.5,0,0,1-1.52,1.52,1.51,1.51,0,0,1-1.09-.44,1.45,1.45,0,0,1-.45-1.08v-5.87a6.32,6.32,0,0,0-.13-1.33A2.93,2.93,0,0,0,70.74,99a2.17,2.17,0,0,0-.86-.71A3.13,3.13,0,0,0,68.53,98Z"/><path class="cls-4" d="M79,102a4,4,0,0,0,.27,1.49,3.87,3.87,0,0,0,.73,1.2,3.74,3.74,0,0,0,1.09.83,3.8,3.8,0,0,0,1.36.39v2.89a6.85,6.85,0,0,1-2.8-.69,6.64,6.64,0,0,1-2-1.57,6.51,6.51,0,0,1-1.25-2.14,7.12,7.12,0,0,1,0-4.8,6.51,6.51,0,0,1,1.25-2.14,6.81,6.81,0,0,1,2-1.58,6.73,6.73,0,0,1,2.8-.7v2.89A3.76,3.76,0,0,0,80,99.3a3.86,3.86,0,0,0-.73,1.2A4,4,0,0,0,79,102Zm4.19,3.92a3.8,3.8,0,0,0,1.36-.39,3.61,3.61,0,0,0,1.08-.83,4.12,4.12,0,0,0,0-5.39,3.62,3.62,0,0,0-1.08-.83,3.8,3.8,0,0,0-1.36-.39V95.19a6.74,6.74,0,0,1,2.8.7,6.82,6.82,0,0,1,2,1.58,6.5,6.5,0,0,1,1.25,2.14,7.12,7.12,0,0,1,0,4.8A6.51,6.51,0,0,1,88,106.55a6.65,6.65,0,0,1-2,1.57,6.86,6.86,0,0,1-2.8.69Z"/><path class="cls-4" d="M94.24,96.58v10.72a1.47,1.47,0,0,1-.47,1.05,1.51,1.51,0,0,1-1.08.42,1.5,1.5,0,0,1-1.52-1.47V96.58a1.58,1.58,0,0,1,.48-1.05,1.47,1.47,0,0,1,1.06-.42,1.42,1.42,0,0,1,1,.43A1.61,1.61,0,0,1,94.24,96.58Zm5.21,10.67v-5.92a7.16,7.16,0,0,0-.1-1.14A3.25,3.25,0,0,0,99,99.12a2.28,2.28,0,0,0-.76-.8,2.36,2.36,0,0,0-1.3-.32,2.53,2.53,0,0,0-1.16.25,2.85,2.85,0,0,0-.79.59V96.07a5.55,5.55,0,0,1,1.19-.66,4.24,4.24,0,0,1,1.65-.29,5,5,0,0,1,1.05.12,4.21,4.21,0,0,1,1.09.4,4.07,4.07,0,0,1,1,.76,4,4,0,0,1,.78,1.21,6.26,6.26,0,0,1,.7-.94,4.6,4.6,0,0,1,.93-.8,4.86,4.86,0,0,1,1.18-.55,4.66,4.66,0,0,1,1.43-.21,6.27,6.27,0,0,1,1.74.27,3.75,3.75,0,0,1,1.66,1,5.78,5.78,0,0,1,.72.92,3.69,3.69,0,0,1,.43,1,7.75,7.75,0,0,1,.21,1.29q.06.72.06,1.7v5.92a1.45,1.45,0,0,1-.45,1.08,1.51,1.51,0,0,1-1.09.44,1.46,1.46,0,0,1-1.1-.46,1.49,1.49,0,0,1-.44-1.05v-5.8a8.56,8.56,0,0,0-.09-1.18,3.49,3.49,0,0,0-.34-1.11,2.17,2.17,0,0,0-.76-.83,2.39,2.39,0,0,0-1.33-.33,2.62,2.62,0,0,0-1.35.31,2.33,2.33,0,0,0-.81.78,3.08,3.08,0,0,0-.4,1.06,6.38,6.38,0,0,0-.11,1.17v5.83a1.67,1.67,0,0,1-.42,1.14,1.42,1.42,0,0,1-1.13.48,1.5,1.5,0,0,1-1.52-1.52Z"/><path class="cls-4" d="M118.37,108.8a6.44,6.44,0,0,1-2.57-.66,6.7,6.7,0,0,1-2-1.53,7.19,7.19,0,0,1-1.32-2.13A6.6,6.6,0,0,1,112,102a6.92,6.92,0,0,1,1.81-4.68,7,7,0,0,1,2-1.52,6.35,6.35,0,0,1,2.56-.66v2.62a4,4,0,0,0-1.35.36,3.38,3.38,0,0,0-1.63,1.6,2.92,2.92,0,0,0-.28.93h3.26V103h-3.3a3.29,3.29,0,0,0,.34,1.29,3.22,3.22,0,0,0,.76,1,3.72,3.72,0,0,0,1,.64,3.88,3.88,0,0,0,1.18.28Zm.73-13.66a6.51,6.51,0,0,1,2.51.64,7.11,7.11,0,0,1,2,1.44,6.73,6.73,0,0,1,1.35,2,5.64,5.64,0,0,1,.49,2.29,1.6,1.6,0,0,1-.48,1,1.45,1.45,0,0,1-1.07.43h-4.82v-2.33h3.3a3,3,0,0,0-.28-.93,3.28,3.28,0,0,0-.65-.91,4,4,0,0,0-1-.72,3.46,3.46,0,0,0-1.36-.36Zm2.59,9.6,0,0a1.73,1.73,0,0,1,.53-.47,1.4,1.4,0,0,1,.72-.2,1.51,1.51,0,0,1,1.06.45,1.45,1.45,0,0,1,.48,1.09,1.8,1.8,0,0,1-.54,1.22,5.13,5.13,0,0,1-1.35,1,8.44,8.44,0,0,1-1.76.71,6.6,6.6,0,0,1-1.79.27v-2.64a3.18,3.18,0,0,0,2.59-1.42Z"/><line class="cls-5" x1="44.9" y1="72.7" x2="44.9" y2="82.26"/><path class="cls-4" d="M21.45,57.9a1.87,1.87,0,0,1,.36.49A1.59,1.59,0,0,1,22,59V74.23a1.49,1.49,0,0,1-.5,1,1.52,1.52,0,0,1-1,.4,1.5,1.5,0,0,1-1.52-1.52V59.07a1.49,1.49,0,0,1,.44-1.1,1.46,1.46,0,0,1,1.08-.44A1.56,1.56,0,0,1,21.45,57.9Zm1.25,7.86V63a3.84,3.84,0,0,1,1.41-.75A5.87,5.87,0,0,1,25.76,62a5.55,5.55,0,0,1,2.46.48,3.88,3.88,0,0,1,1.53,1.31,5.26,5.26,0,0,1,.78,2,12.58,12.58,0,0,1,.22,2.42v6a1.61,1.61,0,0,1-.48,1,1.44,1.44,0,0,1-1.06.43,1.58,1.58,0,0,1-1-.4,1.32,1.32,0,0,1-.48-1.06V68.33a4.43,4.43,0,0,0-.64-2.5,2.42,2.42,0,0,0-2.18-1,3.12,3.12,0,0,0-1.31.24A2.58,2.58,0,0,0,22.7,65.76Z"/><path class="cls-7" d="M42.62,74.37a4.28,4.28,0,0,1-1.63,1,6.13,6.13,0,0,1-2,.32,6.45,6.45,0,0,1-2.75-.56,6.25,6.25,0,0,1-3.34-3.66,7.7,7.7,0,0,1-.44-2.61A7.29,7.29,0,0,1,33,66.06,6.44,6.44,0,0,1,39,62a5.32,5.32,0,0,1,2.14.39,4.71,4.71,0,0,1,1.46,1v3.08a3.87,3.87,0,0,0-1.27-1.13,3.79,3.79,0,0,0-1.88-.44,3.89,3.89,0,0,0-1.66.34,3.62,3.62,0,0,0-1.22.91,4,4,0,0,0-.75,1.29,4.38,4.38,0,0,0-.26,1.48,4.25,4.25,0,0,0,.22,1.3,3.9,3.9,0,0,0,.7,1.27,3.7,3.7,0,0,0,1.22,1,3.86,3.86,0,0,0,1.77.38,3.79,3.79,0,0,0,1.89-.44,3.55,3.55,0,0,0,1.25-1.15Zm.76-10.87a1.41,1.41,0,0,1,.45-1.05,1.54,1.54,0,0,1,2.61,1.1V74.13a1.27,1.27,0,0,1,0,.33,2.2,2.2,0,0,1-.09.26v0a1.68,1.68,0,0,1-.56.67,1.46,1.46,0,0,1-.86.26,1.49,1.49,0,0,1-1.08-.43,1.43,1.43,0,0,1-.44-1.06Z"/><path class="cls-8" d="M54.2,75.65a6.94,6.94,0,0,1-2.5-.73,6.47,6.47,0,0,1-1.92-1.51,6.84,6.84,0,0,1-1.24-2.09,7,7,0,0,1-.44-2.47,6.8,6.8,0,0,1,.46-2.52,6.92,6.92,0,0,1,1.27-2.08,6.61,6.61,0,0,1,4.36-2.18v2.89A3.63,3.63,0,0,0,53,65.4a3.59,3.59,0,0,0-1,.83,3.7,3.7,0,0,0-.62,1.17,4.59,4.59,0,0,0-.22,1.43A4,4,0,0,0,52,71.42a3.65,3.65,0,0,0,2.17,1.31Zm.73-10.75V62a7,7,0,0,1,1.77.23,7.37,7.37,0,0,1,1.68.66,6.67,6.67,0,0,1,1.42,1,5.21,5.21,0,0,1,1,1.37,1.45,1.45,0,0,1,.2.73,1.5,1.5,0,0,1-.43,1.06,1.41,1.41,0,0,1-1.06.45h0a1.45,1.45,0,0,1-.84-.24,1.61,1.61,0,0,1-.55-.66,3.86,3.86,0,0,0-1.31-1.27A3.72,3.72,0,0,0,54.94,64.9Zm3.28,5.95a1.5,1.5,0,0,1,1.32-.64,1.33,1.33,0,0,1,1,.46A1.54,1.54,0,0,1,61,71.73a1.58,1.58,0,0,1-.17.76l-.1.15a6.91,6.91,0,0,1-2.39,2.21,6.62,6.62,0,0,1-3.34.84h0V72.81h0a3.26,3.26,0,0,0,1.88-.55A4.15,4.15,0,0,0,58.12,71,.51.51,0,0,1,58.22,70.85Z"/><path class="cls-4" d="M65.22,57.9a1.63,1.63,0,0,1,.51,1.1V74.2a1.47,1.47,0,0,1-.46,1.05,1.51,1.51,0,0,1-1.08.42,1.5,1.5,0,0,1-1.52-1.52V59.07A1.51,1.51,0,0,1,63.11,58a1.45,1.45,0,0,1,1.08-.45A1.56,1.56,0,0,1,65.22,57.9Zm5,17.14-3.72-5.17V66.49l3.67-4.06a1.74,1.74,0,0,1,.48-.38,1.28,1.28,0,0,1,.6-.13,1.37,1.37,0,0,1,.88.32l0,.07a1.15,1.15,0,0,1,.39.91v.1a1,1,0,0,1-.12.53,2.74,2.74,0,0,1-.32.43l-3.6,3.82,3.94,5.26a1.54,1.54,0,0,1,.34.88v.1a1.47,1.47,0,0,1-.45,1,1.34,1.34,0,0,1-1,.39,1.63,1.63,0,0,1-.64-.15.87.87,0,0,1-.46-.39Z"/><path class="cls-4" d="M88,118.08a2.64,2.64,0,0,1-1.05-.27,2.76,2.76,0,0,1-.82-.62,2.92,2.92,0,0,1-.54-.87,2.7,2.7,0,0,1-.2-1,2.83,2.83,0,0,1,.74-1.91,2.85,2.85,0,0,1,.83-.62,2.6,2.6,0,0,1,1-.27v1.07a1.63,1.63,0,0,0-.55.14,1.41,1.41,0,0,0-.4.29,1.37,1.37,0,0,0-.26.37,1.2,1.2,0,0,0-.11.38H88v1H86.61a1.35,1.35,0,0,0,.14.52,1.31,1.31,0,0,0,.31.4,1.5,1.5,0,0,0,.42.26A1.59,1.59,0,0,0,88,117Zm.3-5.58a2.67,2.67,0,0,1,1,.26,2.91,2.91,0,0,1,.83.59,2.73,2.73,0,0,1,.55.82,2.3,2.3,0,0,1,.2.93.66.66,0,0,1-.19.43.59.59,0,0,1-.44.17h-2v-1h1.35a1.21,1.21,0,0,0-.12-.38,1.31,1.31,0,0,0-.26-.37,1.62,1.62,0,0,0-.42-.29,1.4,1.4,0,0,0-.55-.14Zm1.06,3.92,0,0a.71.71,0,0,1,.21-.19.57.57,0,0,1,.29-.08.61.61,0,0,1,.43.19.59.59,0,0,1,.2.44.74.74,0,0,1-.22.5,2.08,2.08,0,0,1-.55.42A3.45,3.45,0,0,1,89,118a2.66,2.66,0,0,1-.73.11V117a1.29,1.29,0,0,0,1.06-.58Z"/><path class="cls-4" d="M92.82,113.09v4.38a.62.62,0,0,1-.19.44.61.61,0,0,1-.44.17.6.6,0,0,1-.43-.17.61.61,0,0,1-.19-.42v-4.39a.64.64,0,0,1,.2-.42.6.6,0,0,1,.43-.17.62.62,0,0,1,.44.17A.55.55,0,0,1,92.82,113.09Zm1.2.59a1.42,1.42,0,0,0-.54.09.89.89,0,0,0-.36.26v-1.14a1.93,1.93,0,0,1,.51-.28,2.12,2.12,0,0,1,.74-.11,2.15,2.15,0,0,1,1,.22,1.74,1.74,0,0,1,.63.56,2,2,0,0,1,.3.73,4,4,0,0,1,.07.74v2.71a.61.61,0,0,1-.62.62.61.61,0,0,1-.45-.18.59.59,0,0,1-.19-.44v-2.4a2.57,2.57,0,0,0-.05-.55,1.19,1.19,0,0,0-.18-.44.89.89,0,0,0-.35-.29A1.27,1.27,0,0,0,94,113.68Z"/><path class="cls-4" d="M98.68,115.27a1.74,1.74,0,0,0,.11.6,1.57,1.57,0,0,0,.31.52,1.51,1.51,0,0,0,.5.37,1.61,1.61,0,0,0,.69.14,1.54,1.54,0,0,0,.7-.16,1.46,1.46,0,0,0,.51-.42v1.25a2.11,2.11,0,0,1-1.39.49,2.78,2.78,0,0,1-1-.19,2.54,2.54,0,0,1-.86-.55,2.6,2.6,0,0,1-.58-.88,3.13,3.13,0,0,1-.21-1.2,2.9,2.9,0,0,1,.24-1.21,2.63,2.63,0,0,1,.61-.87,2.5,2.5,0,0,1,.84-.51,2.7,2.7,0,0,1,.93-.17,2.82,2.82,0,0,1,.69.1,2,2,0,0,1,.76.41v1.24a1.65,1.65,0,0,0-.52-.42,1.5,1.5,0,0,0-.72-.17,1.53,1.53,0,0,0-1.14.48,1.61,1.61,0,0,0-.33.52A1.66,1.66,0,0,0,98.68,115.27Zm3.12-4a.63.63,0,0,1,.63-.63.59.59,0,0,1,.44.17.67.67,0,0,1,.19.44v6.19a.63.63,0,0,1-.21.44.61.61,0,0,1-.42.17.62.62,0,0,1-.63-.62Z"/><path class="cls-4" d="M103.8,113.49l0,0a.68.68,0,0,1,0-.21.58.58,0,0,1,.19-.44.61.61,0,0,1,.43-.18.52.52,0,0,1,.37.13,1,1,0,0,1,.22.32l1,2.67-.62,1.64Zm3.51-.44v0a.75.75,0,0,1,.24-.29.58.58,0,0,1,.34-.1.59.59,0,0,1,.44.18.59.59,0,0,1,.18.42v.05a.6.6,0,0,1,0,.23l-2.38,6.11a.8.8,0,0,1-.22.3.54.54,0,0,1-.37.13.61.61,0,0,1-.44-.17.58.58,0,0,1-.18-.44.54.54,0,0,1,0-.11.56.56,0,0,1,0-.1Z"/><path class="cls-4" d="M113,111.25v6.22a.62.62,0,0,1-.62.6.62.62,0,0,1-.44-.17.6.6,0,0,1-.19-.43v-6.22a.65.65,0,0,1,.19-.42.59.59,0,0,1,.44-.17.58.58,0,0,1,.42.17A.66.66,0,0,1,113,111.25Z"/><path class="cls-4" d="M117.62,117.54a1.76,1.76,0,0,1-.67.4,2.52,2.52,0,0,1-.81.13,2.59,2.59,0,0,1-2-.84,2.61,2.61,0,0,1-.52-.89,3.14,3.14,0,0,1-.18-1.06,3,3,0,0,1,.21-1.13,2.6,2.6,0,0,1,1.43-1.45,2.63,2.63,0,0,1,1-.21,2.17,2.17,0,0,1,.88.16,1.91,1.91,0,0,1,.6.39v1.26a1.58,1.58,0,0,0-.52-.46,1.54,1.54,0,0,0-.77-.18,1.6,1.6,0,0,0-.68.14,1.5,1.5,0,0,0-.5.37,1.63,1.63,0,0,0-.3.53,1.78,1.78,0,0,0-.1.6,1.72,1.72,0,0,0,.09.53,1.56,1.56,0,0,0,.29.52,1.51,1.51,0,0,0,.5.4,1.58,1.58,0,0,0,.72.16,1.54,1.54,0,0,0,.77-.18,1.44,1.44,0,0,0,.51-.47Zm.31-4.44a.58.58,0,0,1,.19-.43.6.6,0,0,1,.43-.18.63.63,0,0,1,.63.63v4.32a.54.54,0,0,1,0,.13l0,.1h0a.68.68,0,0,1-.23.27.59.59,0,0,1-.35.11.61.61,0,0,1-.44-.17.59.59,0,0,1-.18-.44Z"/><path class="cls-4" d="M121.07,110.82a.61.61,0,0,1,.21.47v6.17a.58.58,0,0,1-.19.42.6.6,0,0,1-.45.19.61.61,0,0,1-.42-.17.64.64,0,0,1-.21-.44v-6.19a.67.67,0,0,1,.2-.44.59.59,0,0,1,.43-.17A.61.61,0,0,1,121.07,110.82Zm1.9,7.25a2.19,2.19,0,0,1-.79-.13,2,2,0,0,1-.6-.36v-1.25a1.44,1.44,0,0,0,.51.42,1.54,1.54,0,0,0,.7.16,1.58,1.58,0,0,0,.68-.14,1.51,1.51,0,0,0,.5-.37,1.66,1.66,0,0,0,.32-.52,1.68,1.68,0,0,0,.11-.6,1.62,1.62,0,0,0-.12-.62,1.72,1.72,0,0,0-.33-.52,1.55,1.55,0,0,0-.5-.35,1.56,1.56,0,0,0-1.87.46V113a2,2,0,0,1,.76-.41,2.8,2.8,0,0,1,.69-.1,2.73,2.73,0,0,1,.93.17,2.49,2.49,0,0,1,.84.51,2.64,2.64,0,0,1,.61.87,2.92,2.92,0,0,1,.23,1.21,3.13,3.13,0,0,1-.21,1.2,2.58,2.58,0,0,1-.58.88,2.52,2.52,0,0,1-.85.55A2.78,2.78,0,0,1,123,118.07Z"/><polygon class="cls-9" points="67.48 3.32 5.13 39.32 0.63 41.92 0.63 47.11 0.63 119.11 0.63 124.31 5.13 126.91 67.48 162.91 71.98 165.51 76.48 162.91 138.83 126.91 143.33 124.31 143.33 119.11 143.33 47.11 143.33 41.92 138.83 39.32 76.48 3.32 71.98 0.72 67.48 3.32"/><polygon class="cls-10" points="134.33 119.11 71.98 155.11 9.63 119.11 9.63 47.11 71.98 11.11 134.33 47.11 134.33 119.11"/></g></g></g></svg>