<svg xmlns="http://www.w3.org/2000/svg" xmlns:xlink="http://www.w3.org/1999/xlink" viewBox="0 0 143.96 166.23"><defs><style>.cls-1,.cls-5,.cls-6{fill:none;}.cls-2{clip-path:url(#clip-path);}.cls-3{fill:#2b3990;}.cls-4{fill:#fff;}.cls-5{stroke:#231f20;stroke-width:1.25px;}.cls-6{stroke:#262262;stroke-width:8px;}</style><clipPath id="clip-path"><polygon class="cls-1" points="134.33 119.11 71.98 155.11 9.63 119.11 9.63 47.11 71.98 11.11 134.33 47.11 134.33 119.11"/></clipPath></defs><title>RCRC</title><g id="Layer_2" data-name="Layer 2"><g id="RCRC"><g class="cls-2"><polygon class="cls-3" points="67.48 3.32 5.13 39.32 0.63 41.92 0.63 47.11 0.63 119.11 0.63 124.31 5.13 126.91 67.48 162.91 71.98 165.51 76.48 162.91 138.83 126.91 143.33 124.31 143.33 119.11 143.33 47.11 143.33 41.92 138.83 39.32 76.48 3.32 71.98 0.72 67.48 3.32"/><polygon class="cls-3" points="68.39 18.61 18.69 47.71 15.1 49.81 15.1 54.01 15.1 112.21 15.1 116.41 18.69 118.51 68.39 147.61 71.98 149.71 75.57 147.61 125.27 118.51 128.86 116.41 128.86 112.21 128.86 54.01 128.86 49.81 125.27 47.71 75.57 18.61 71.98 16.51 68.39 18.61"/><path class="cls-4" d="M53.61,117.85a.43.43,0,0,1,.15.33v4.37a.41.41,0,0,1-.13.3.44.44,0,0,1-.62,0,.45.45,0,0,1-.15-.31v-4.39a.47.47,0,0,1,.14-.31.42.42,0,0,1,.31-.12A.44.44,0,0,1,53.61,117.85ZM55,123a1.55,1.55,0,0,1-.56-.1,1.38,1.38,0,0,1-.43-.25v-.89a1,1,0,0,0,.36.29,1.09,1.09,0,0,0,.5.11,1.13,1.13,0,0,0,.48-.1,1.09,1.09,0,0,0,.36-.26A1.19,1.19,0,0,0,56,121a1.13,1.13,0,0,0-.09-.44,1.2,1.2,0,0,0-.23-.37,1.11,1.11,0,0,0-1.68.07v-.88a1.39,1.39,0,0,1,.54-.29A2,2,0,0,1,55,119a1.93,1.93,0,0,1,.66.12,1.76,1.76,0,0,1,.6.37,1.86,1.86,0,0,1,.43.61,2.06,2.06,0,0,1,.17.86,2.22,2.22,0,0,1-.15.85,1.83,1.83,0,0,1-.41.63,1.8,1.8,0,0,1-.61.39A2,2,0,0,1,55,123Z"/><path class="cls-4" d="M59.81,122.72a1.11,1.11,0,0,1-.36.2,1.63,1.63,0,0,1-.53.07,1.52,1.52,0,0,1-.74-.16,1.24,1.24,0,0,1-.44-.39,1.38,1.38,0,0,1-.21-.52,2.81,2.81,0,0,1-.05-.52v-1.92a.44.44,0,0,1,.13-.32.44.44,0,0,1,.62,0,.47.47,0,0,1,.14.31v1.72a1.82,1.82,0,0,0,0,.39.84.84,0,0,0,.13.31.62.62,0,0,0,.25.21.93.93,0,0,0,.39.07,1,1,0,0,0,.38-.06.63.63,0,0,0,.26-.18Zm1.11-3.25v3.11a.43.43,0,0,1-.13.3.45.45,0,0,1-.62,0,.45.45,0,0,1-.14-.3v-3.11a.46.46,0,0,1,.14-.3.42.42,0,0,1,.3-.12.43.43,0,0,1,.31.12A.45.45,0,0,1,60.92,119.46Z"/><path class="cls-4" d="M61.59,118a.44.44,0,0,1,.29-.11.45.45,0,0,1,.32.12.4.4,0,0,1,.13.31v0a.43.43,0,0,1-.13.3.44.44,0,0,1-.31.12.44.44,0,0,1-.44-.44A.44.44,0,0,1,61.59,118Zm.74,1.5v3.11a.43.43,0,0,1-.13.3.44.44,0,0,1-.31.12.44.44,0,0,1-.44-.43v-3.11a.44.44,0,0,1,.14-.3.44.44,0,0,1,.6,0A.45.45,0,0,1,62.33,119.46Z"/><path class="cls-4" d="M63.8,118.16v4.41a.44.44,0,0,1-.44.43.44.44,0,0,1-.31-.12.42.42,0,0,1-.13-.3v-4.41a.47.47,0,0,1,.14-.3.42.42,0,0,1,.31-.12.41.41,0,0,1,.3.12A.46.46,0,0,1,63.8,118.16Z"/><path class="cls-4" d="M65.36,121a1.24,1.24,0,0,0,.07.43,1.12,1.12,0,0,0,.22.37,1.09,1.09,0,0,0,.36.26,1.15,1.15,0,0,0,.49.1,1.09,1.09,0,0,0,.5-.11,1,1,0,0,0,.36-.29v.89a1.49,1.49,0,0,1-.43.25,1.53,1.53,0,0,1-.55.1,2,2,0,0,1-.73-.13,1.8,1.8,0,0,1-.61-.39,1.83,1.83,0,0,1-.41-.63,2.21,2.21,0,0,1-.15-.85,2.06,2.06,0,0,1,.17-.86,1.86,1.86,0,0,1,.43-.61,1.77,1.77,0,0,1,.6-.37,1.92,1.92,0,0,1,.66-.12,2,2,0,0,1,.49.07,1.39,1.39,0,0,1,.54.29v.88A1.18,1.18,0,0,0,67,120a1.07,1.07,0,0,0-.51-.12,1.08,1.08,0,0,0-.81.34,1.16,1.16,0,0,0-.23.37A1.18,1.18,0,0,0,65.36,121Zm2.21-2.82a.45.45,0,0,1,.45-.45.42.42,0,0,1,.31.12.47.47,0,0,1,.14.31v4.39a.45.45,0,0,1-.15.31.43.43,0,0,1-.3.12.44.44,0,0,1-.45-.44Z"/><path class="cls-4" d="M71.94,122.62a1.24,1.24,0,0,1-.47.28,1.77,1.77,0,0,1-.57.09,1.87,1.87,0,0,1-.8-.16,1.81,1.81,0,0,1-1-1.06A2.23,2.23,0,0,1,69,121a2.11,2.11,0,0,1,.15-.8A1.87,1.87,0,0,1,70.9,119a1.54,1.54,0,0,1,.62.11,1.36,1.36,0,0,1,.42.28v.89a1.12,1.12,0,0,0-.37-.33,1.1,1.1,0,0,0-.55-.13,1.13,1.13,0,0,0-.48.1,1.05,1.05,0,0,0-.35.26,1.15,1.15,0,0,0-.22.37,1.27,1.27,0,0,0-.07.43,1.24,1.24,0,0,0,.06.38,1.13,1.13,0,0,0,.2.37,1.08,1.08,0,0,0,.35.28,1.12,1.12,0,0,0,.51.11,1.1,1.1,0,0,0,.55-.13,1,1,0,0,0,.36-.33Zm.22-3.15a.41.41,0,0,1,.13-.3.44.44,0,0,1,.76.32v3.06a.37.37,0,0,1,0,.1l0,.07h0a.48.48,0,0,1-.16.2.42.42,0,0,1-.25.07.43.43,0,0,1-.31-.12.41.41,0,0,1-.13-.31Z"/><path class="cls-4" d="M75.3,123a2,2,0,0,1-.72-.21,1.87,1.87,0,0,1-.56-.44,2,2,0,0,1-.36-.61,2,2,0,0,1-.13-.72,2,2,0,0,1,.14-.73,2,2,0,0,1,.37-.6,1.91,1.91,0,0,1,1.26-.63v.84a1,1,0,0,0-.35.13,1,1,0,0,0-.28.24,1.06,1.06,0,0,0-.18.34,1.32,1.32,0,0,0-.06.41,1.15,1.15,0,0,0,.24.75,1.05,1.05,0,0,0,.63.38Zm.21-3.11V119a2,2,0,0,1,.51.07,2.14,2.14,0,0,1,.49.19,1.93,1.93,0,0,1,.41.3,1.52,1.52,0,0,1,.3.4.42.42,0,0,1,.06.21.43.43,0,0,1-.12.31.41.41,0,0,1-.31.13h0a.42.42,0,0,1-.24-.07.47.47,0,0,1-.16-.19A1.12,1.12,0,0,0,76,120,1.08,1.08,0,0,0,75.51,119.88Zm1,1.72a.43.43,0,0,1,.38-.18.38.38,0,0,1,.3.13.44.44,0,0,1,.12.3.46.46,0,0,1,0,.22l0,0a2,2,0,0,1-.69.64,1.92,1.92,0,0,1-1,.24h0v-.84h0a1,1,0,0,0,.55-.16,1.2,1.2,0,0,0,.36-.37Z"/><path class="cls-4" d="M79.34,123a1.87,1.87,0,0,1-.74-.19,2,2,0,0,1-.58-.44,2.08,2.08,0,0,1-.38-.62,1.92,1.92,0,0,1-.14-.72,2,2,0,0,1,.52-1.35,2,2,0,0,1,.59-.44,1.84,1.84,0,0,1,.74-.19v.76a1.16,1.16,0,0,0-.39.1,1,1,0,0,0-.47.46.85.85,0,0,0-.08.27h.94v.67h-1a1,1,0,0,0,.1.37.93.93,0,0,0,.22.28,1.08,1.08,0,0,0,.3.18,1.12,1.12,0,0,0,.34.08Zm.21-4a1.89,1.89,0,0,1,.73.18,2.07,2.07,0,0,1,.59.42,2,2,0,0,1,.39.58,1.63,1.63,0,0,1,.14.66.47.47,0,0,1-.14.3.42.42,0,0,1-.31.12h-1.4v-.67h1a.85.85,0,0,0-.08-.27,1,1,0,0,0-.19-.26,1.16,1.16,0,0,0-.29-.21,1,1,0,0,0-.39-.1Zm.75,2.78h0a.51.51,0,0,1,.15-.13.4.4,0,0,1,.21-.06.44.44,0,0,1,.31.13.42.42,0,0,1,.14.32.52.52,0,0,1-.16.35,1.48,1.48,0,0,1-.39.3,2.44,2.44,0,0,1-.51.21,1.91,1.91,0,0,1-.52.08v-.77a.92.92,0,0,0,.75-.41Z"/><path class="cls-4" d="M82.76,118.16v4.41a.44.44,0,0,1-.44.43.44.44,0,0,1-.31-.12.42.42,0,0,1-.13-.3v-4.41a.47.47,0,0,1,.14-.3.42.42,0,0,1,.31-.12.41.41,0,0,1,.3.12A.46.46,0,0,1,82.76,118.16Z"/><path class="cls-4" d="M84.18,118.16v4.41a.44.44,0,0,1-.44.43.44.44,0,0,1-.31-.12.42.42,0,0,1-.13-.3v-4.41a.47.47,0,0,1,.14-.3.42.42,0,0,1,.31-.12.41.41,0,0,1,.3.12A.46.46,0,0,1,84.18,118.16Z"/><path class="cls-4" d="M84.53,122.53a.46.46,0,0,1,.13-.33.44.44,0,0,1,.33-.14.47.47,0,0,1,0,.94.44.44,0,0,1-.33-.14A.46.46,0,0,1,84.53,122.53Z"/><path class="cls-4" d="M85.93,118a.44.44,0,0,1,.29-.11.45.45,0,0,1,.32.12.4.4,0,0,1,.13.31v0a.43.43,0,0,1-.13.3.44.44,0,0,1-.31.12.44.44,0,0,1-.44-.44A.44.44,0,0,1,85.93,118Zm.74,1.5v3.11a.43.43,0,0,1-.13.3.44.44,0,0,1-.31.12.44.44,0,0,1-.44-.43v-3.11a.44.44,0,0,1,.14-.3.44.44,0,0,1,.6,0A.45.45,0,0,1,86.67,119.46Z"/><path class="cls-4" d="M88,121a1.17,1.17,0,0,0,.08.43,1.12,1.12,0,0,0,.21.35,1.09,1.09,0,0,0,.71.35V123a2,2,0,0,1-.81-.2,1.92,1.92,0,0,1-.59-.45,1.88,1.88,0,0,1-.36-.62,2.06,2.06,0,0,1,0-1.39,1.88,1.88,0,0,1,.36-.62,2,2,0,0,1,.59-.46,2,2,0,0,1,.81-.2v.84a1.09,1.09,0,0,0-.71.35,1.12,1.12,0,0,0-.21.35A1.17,1.17,0,0,0,88,121Zm1.21,1.13a1.1,1.1,0,0,0,.39-.11,1,1,0,0,0,.31-.24,1.19,1.19,0,0,0,0-1.56,1,1,0,0,0-.31-.24,1.1,1.1,0,0,0-.39-.11v-.84a2,2,0,0,1,.81.2,2,2,0,0,1,.59.46,1.89,1.89,0,0,1,.36.62,2.06,2.06,0,0,1,0,1.39,1.89,1.89,0,0,1-.36.62,1.93,1.93,0,0,1-.59.45,2,2,0,0,1-.81.2Z"/><path class="cls-4" d="M23.51,49.42V63.68H20.25V49.42Zm1.73,5.78a1.48,1.48,0,0,0,1.15-.41,1.7,1.7,0,0,0,.38-1.19,2.09,2.09,0,0,0-.36-1.35,1.44,1.44,0,0,0-1.17-.43H24.1V49.42h1q5,0,5,3.78a4.5,4.5,0,0,1-.44,2.19,2,2,0,0,1-1.47,1q1.87.49,1.87,2.92v3.13a5.37,5.37,0,0,0,0,.74,1.3,1.3,0,0,0,.17.52H27a1.87,1.87,0,0,1-.23-1V59.41q0-1.84-1.49-1.84H24.1V55.2Z"/><path class="cls-4" d="M31.7,53.1q0-3.83,4.73-4v2.32A1.38,1.38,0,0,0,35,53v7.18a1.38,1.38,0,0,0,1.39,1.53V64q-4.73-.2-4.73-4.36ZM38.45,53A1.37,1.37,0,0,0,37,51.44V49.1q4.84,0,4.84,4.07v6.52q0,4.18-4.84,4.28v-2.3a1.38,1.38,0,0,0,1.42-1.53Z"/><path class="cls-4" d="M48.26,64q-4.73-.16-4.73-4.36V49.42h3.35V60.13a1.38,1.38,0,0,0,1.39,1.53Zm.58-2.3a1.77,1.77,0,0,0,1.07-.42,1.47,1.47,0,0,0,.37-1.11V49.42h3.38V59.68q0,4.18-4.82,4.28Z"/><path class="cls-4" d="M55.31,53q0-3.89,4.68-3.89v2.32a1.33,1.33,0,0,0-1.33,1.44v7.36A1.3,1.3,0,0,0,60,61.66v2.25a5.29,5.29,0,0,1-3.56-1,4,4,0,0,1-1.12-3.17Zm5.2,8.66q1.55,0,1.55-1.42V58.3q0-.9-.76-.9H60.24V55.26h5v8.42H63.73l-.72-1a2.52,2.52,0,0,1-2.36,1.28h-.14Zm0-12.56q4.73,0,4.73,3.94v1.3H62.06V52.88q0-1.4-1.55-1.46Z"/><path class="cls-4" d="M70.27,63.68H67V49.42h3.28Zm3.28-14.26h3.31V63.68H73.55V57.47h-2.7V55.09h2.7Z"/><path class="cls-4" d="M20.16,70q0-3.67,4.66-3.89v2.34a1.31,1.31,0,0,0-1.31,1.42V77.3q0,1.19,1.31,1.37V81q-4.66-.18-4.66-4.19Zm5.33-3.91q4.84,0,4.84,4v1.33H26.91V69.88a1.31,1.31,0,0,0-1.42-1.44Zm0,12.56q1.42-.13,1.42-1.37v-2h3.42v1.53q0,4-4.84,4.1Z"/><path class="cls-4" d="M31.86,70.1q0-3.83,4.73-4v2.32A1.38,1.38,0,0,0,35.21,70v7.18a1.38,1.38,0,0,0,1.39,1.53V81q-4.73-.2-4.73-4.36ZM38.61,70a1.37,1.37,0,0,0-1.42-1.51V66.1q4.84,0,4.84,4.07v6.52q0,4.18-4.84,4.28v-2.3a1.38,1.38,0,0,0,1.42-1.53Z"/><path class="cls-4" d="M46.78,66.42V80.68H43.72V66.42Zm4,13.3-3.56-7.22v-5l3.56,7.27Zm3.49-13.3V80.68H51.12V66.42Z"/><path class="cls-4" d="M58.93,76.45a1.85,1.85,0,0,0,1.82,2.05V81q-5-.18-5-4.52Zm7.43.9q0,3.51-4.82,3.62V78.52q1.6-.14,1.6-1.15a2,2,0,0,0-.85-1.26L60,74.38q-1.08-.81-2.12-1.51a4.74,4.74,0,0,1-1.78-3q0-3.56,4.66-3.69v2.41a1.75,1.75,0,0,0-1.1.41,1.36,1.36,0,0,0-.29.94,1.08,1.08,0,0,0,.49.94l.79.51,1,.67,1,.71.91.65.66.47.27.18A4,4,0,0,1,66.36,77.35Zm-3.42-7.06a1.53,1.53,0,0,0-1.4-1.71V66.17q4.72.18,4.72,4.12Z"/><path class="cls-4" d="M71.26,66.42V80.68H68V66.42Zm.5,0H76v2.39H71.76Zm0,5.65h4v2.38h-4ZM76,80.68H71.76V78.21H76Z"/><path class="cls-4" d="M80.53,66.42V80.68H77.47V66.42Zm4,13.3-3.56-7.22v-5l3.56,7.27ZM88,66.42V80.68H84.87V66.42Z"/><path class="cls-4" d="M92.68,76.45A1.85,1.85,0,0,0,94.5,78.5V81q-5-.18-5-4.52Zm7.43.9q0,3.51-4.82,3.62V78.52q1.6-.14,1.6-1.15A2,2,0,0,0,96,76.11l-2.32-1.73q-1.08-.81-2.12-1.51a4.74,4.74,0,0,1-1.78-3q0-3.56,4.66-3.69v2.41a1.75,1.75,0,0,0-1.1.41,1.36,1.36,0,0,0-.29.94,1.08,1.08,0,0,0,.49.94l.79.51,1,.67,1,.71.91.65.66.47.27.18A4,4,0,0,1,100.11,77.35Zm-3.42-7.06a1.53,1.53,0,0,0-1.4-1.71V66.17q4.72.18,4.72,4.12Z"/><path class="cls-4" d="M106.41,81q-4.73-.16-4.73-4.36V66.42H105V77.13a1.38,1.38,0,0,0,1.39,1.53Zm.58-2.3a1.77,1.77,0,0,0,1.07-.42,1.47,1.47,0,0,0,.37-1.11V66.42h3.38V76.68q0,4.18-4.82,4.28Z"/><path class="cls-4" d="M116.47,76.45a1.85,1.85,0,0,0,1.82,2.05V81q-5-.18-5-4.52Zm7.43.9q0,3.51-4.82,3.62V78.52q1.6-.14,1.6-1.15a2,2,0,0,0-.85-1.26l-2.32-1.73q-1.08-.81-2.12-1.51a4.74,4.74,0,0,1-1.78-3q0-3.56,4.66-3.69v2.41a1.75,1.75,0,0,0-1.1.41,1.36,1.36,0,0,0-.29.94,1.08,1.08,0,0,0,.49.94l.79.51,1,.67,1,.71.91.65.66.47.27.18A4,4,0,0,1,123.91,77.35Zm-3.42-7.06a1.53,1.53,0,0,0-1.4-1.71V66.17q4.72.18,4.72,4.12Z"/><path class="cls-4" d="M23.51,83.42V97.68H20.25V83.42Zm1.73,5.78a1.48,1.48,0,0,0,1.15-.41,1.7,1.7,0,0,0,.38-1.19,2.09,2.09,0,0,0-.36-1.35,1.44,1.44,0,0,0-1.17-.43H24.1V83.42h1q5,0,5,3.78a4.5,4.5,0,0,1-.44,2.19,2,2,0,0,1-1.47,1q1.87.49,1.87,2.92v3.13a5.37,5.37,0,0,0,0,.74,1.3,1.3,0,0,0,.17.52H27a1.87,1.87,0,0,1-.23-1V93.41q0-1.84-1.49-1.84H24.1V89.2Z"/><path class="cls-4" d="M36.48,98q-4.73-.16-4.73-4.36V83.42H35.1V94.13a1.38,1.38,0,0,0,1.39,1.53Zm.58-2.3a1.77,1.77,0,0,0,1.07-.42,1.47,1.47,0,0,0,.37-1.11V83.42h3.38V93.68q0,4.18-4.82,4.28Z"/><path class="cls-4" d="M46.69,83.42V97.68H43.63V83.42Zm4,13.3-3.56-7.22v-5l3.56,7.27Zm3.49-13.3V97.68H51V83.42Z"/><path class="cls-4" d="M59,83.42V97.68H55.92V83.42Zm4,13.3-3.56-7.22v-5l3.56,7.27Zm3.49-13.3V97.68H63.32V83.42Z"/><path class="cls-4" d="M68.22,83.42h3.37V97.68H68.22Z"/><path class="cls-4" d="M76.44,83.42V97.68H73.38V83.42Zm4,13.3-3.56-7.22v-5l3.56,7.27Zm3.49-13.3V97.68H80.78V83.42Z"/><path class="cls-4" d="M85.59,87q0-3.89,4.68-3.89v2.32a1.33,1.33,0,0,0-1.33,1.44v7.36a1.3,1.3,0,0,0,1.33,1.42v2.25a5.29,5.29,0,0,1-3.56-1,4,4,0,0,1-1.12-3.17Zm5.2,8.66q1.55,0,1.55-1.42V92.3q0-.9-.76-.9H90.52V89.26h5v8.42H94l-.72-1a2.52,2.52,0,0,1-2.36,1.28h-.14Zm0-12.56q4.73,0,4.73,3.94v1.3H92.34V86.88q0-1.4-1.55-1.46Z"/><path class="cls-4" d="M20.16,104q0-3.67,4.66-3.89v2.34a1.31,1.31,0,0,0-1.31,1.42v7.42q0,1.19,1.31,1.37V115q-4.66-.18-4.66-4.19Zm5.33-3.91q4.84,0,4.84,4v1.33H26.91v-1.51a1.31,1.31,0,0,0-1.42-1.44Zm0,12.56q1.42-.13,1.42-1.37v-2h3.42v1.53q0,4-4.84,4.1Z"/><path class="cls-4" d="M31.86,104.1q0-3.83,4.73-4v2.32A1.38,1.38,0,0,0,35.21,104v7.18a1.38,1.38,0,0,0,1.39,1.53V115q-4.73-.2-4.73-4.36Zm6.75-.14a1.37,1.37,0,0,0-1.42-1.51V100.1q4.84,0,4.84,4.07v6.52q0,4.18-4.84,4.28v-2.3a1.38,1.38,0,0,0,1.42-1.53Z"/><path class="cls-4" d="M47,100.42v14.26H43.72V100.42Zm.5,0h1.69q4.57,0,4.57,4v6.17q0,4.07-4.61,4.07H47.48v-2.43h1.17a2.23,2.23,0,0,0,1.32-.31,1.12,1.12,0,0,0,.41-1v-6.68A1.35,1.35,0,0,0,50,103.2a2.13,2.13,0,0,0-1.34-.34H47.48Z"/><path class="cls-4" d="M55.36,104.1q0-3.83,4.73-4v2.32A1.38,1.38,0,0,0,58.71,104v7.18a1.38,1.38,0,0,0,1.39,1.53V115q-4.73-.2-4.73-4.36Zm6.75-.14a1.37,1.37,0,0,0-1.42-1.51V100.1q4.84,0,4.84,4.07v6.52q0,4.18-4.84,4.28v-2.3a1.38,1.38,0,0,0,1.42-1.53Z"/><path class="cls-4" d="M70.29,100.42v14.26H67.23V100.42Zm4,13.3-3.56-7.22v-5l3.56,7.27Zm3.49-13.3v14.26H74.62V100.42Z"/><path class="cls-4" d="M82.44,110.45a1.85,1.85,0,0,0,1.82,2.05V115q-5-.18-5-4.52Zm7.43.9q0,3.51-4.82,3.62v-2.45q1.6-.14,1.6-1.15a2,2,0,0,0-.85-1.26l-2.32-1.73q-1.08-.81-2.12-1.51a4.74,4.74,0,0,1-1.78-3q0-3.56,4.66-3.69v2.41a1.75,1.75,0,0,0-1.1.41,1.36,1.36,0,0,0-.29.94,1.08,1.08,0,0,0,.49.94l.79.51,1,.67,1,.71.91.65.66.47.27.18A4,4,0,0,1,89.87,111.35Zm-3.42-7.06a1.53,1.53,0,0,0-1.4-1.71v-2.41q4.72.18,4.72,4.12Z"/><path class="cls-4" d="M90.81,112.43H94v2.25H90.81Z"/><polygon class="cls-5" points="67.48 3.32 5.13 39.32 0.63 41.92 0.63 47.11 0.63 119.11 0.63 124.31 5.13 126.91 67.48 162.91 71.98 165.51 76.48 162.91 138.83 126.91 143.33 124.31 143.33 119.11 143.33 47.11 143.33 41.92 138.83 39.32 76.48 3.32 71.98 0.72 67.48 3.32"/><polygon id="Border" class="cls-6" points="134.33 119.11 71.98 155.11 9.63 119.11 9.63 47.11 71.98 11.11 134.33 47.11 134.33 119.11"/></g></g></g></svg>